<mxfile host="app.diagrams.net" modified="2023-07-06T18:25:11.855Z" agent="Mozilla/5.0 (Windows NT 10.0; Win64; x64) AppleWebKit/537.36 (KHTML, like Gecko) Chrome/114.0.0.0 Safari/537.36" version="21.6.1" etag="s_d-8WmmFzcRrtb4cAWV" type="github">
  <diagram name="PÃ¡gina-1" id="OTZugGkSWPEpvHXk65dY">
    <mxGraphModel>
      <root>
        <mxCell id="0" />
        <mxCell id="1" parent="0" />
      </root>
    </mxGraphModel>
  </diagram>
</mxfile>
